# xmcd
#
# Track frame offsets:
#	150
#	11148
#	22637
#	38281
#	54815
#	85290
#	101153
#	113846
#	128453
#	141852
#	153585
#	173934
#	189278
#	206495
#	226017
#	243546
#	262868
#	279002
#	289024
#	298731
#	316851
#	333721
#	348445
#
# Disc length: 4789 seconds
#
# Revision: 1
# Processed by: cddbd v1.5.2PL0 Copyright (c) Steve Scherf et al.
# Submitted via: audiograbber 1.83.01
#
DISCID=3212b317
DTITLE=Western Heart - Western Heart 072 and Christmas 2006
DYEAR=2006
DGENRE=Country
TTITLE0=My Arms Are A House  - Hal Willis
TTITLE1=Trip To Calvary  - Thresa Haddock
TTITLE2=Tequila, Salt and Lime  - Doug Jones
TTITLE3=In My Dreams  - Cheryl K Warner
TTITLE4=The Last Days Of New Orleans  - Vernon Oxford
TTITLE5=Stay Close  - The Shady Creek Outlaws
TTITLE6=This Is Forever - Maggie Austin
TTITLE7=The Box  - Tim Chesney
TTITLE8=Can´t Stop Thinking About You  - Lillian and Manon
TTITLE9=Cabana Man  - Stevie Cee
TTITLE10=Old Dress, New Shoes  - Jackie Barnett
TTITLE11=Old Red  - The Shady Creek Outlaws
TTITLE12=Bonnie and Buck and Breakfirst  - Jay Ramsey
TTITLE13=Wake Me From This Nightmare  - Stephen Shepherd
TTITLE14=A Song For, Feed The Chrildren - Kevin Hall
TTITLE15=G-rated Kids In A X-rated World - Arlene Renee
TTITLE16=Kris Kringle´s Krick  - Hal Willis
TTITLE17=Visions  - Cheryl K Warner
TTITLE18=Ol´ Santa Got Stuck In The Chemney  - Ernie Ashworth
TTITLE19=Christmas Dreaming  - The Matekies
TTITLE20=Beneath The Talmadge Bridge  - Ken Byford
TTITLE21=Kissing At Christmas  - Kerr Donnelly Band
TTITLE22=The Christmas Song  - Tim Chesney
EXTD=
EXTT0=
EXTT1=
EXTT2=
EXTT3=
EXTT4=
EXTT5=
EXTT6=
EXTT7=
EXTT8=
EXTT9=
EXTT10=
EXTT11=
EXTT12=
EXTT13=
EXTT14=
EXTT15=
EXTT16=
EXTT17=
EXTT18=
EXTT19=
EXTT20=
EXTT21=
EXTT22=
PLAYORDER=
